<svg width="21" height="18" viewBox="0 0 21 18" fill="none" xmlns="http://www.w3.org/2000/svg">
<path d="M19.8678 16.29L16.1868 12.9C17.3745 11.5025 18.0189 9.77666 18.0165 8C18.0165 6.41775 17.5085 4.87103 16.5568 3.55544C15.6051 2.23985 14.2525 1.21447 12.6699 0.608967C11.0872 0.00346625 9.3458 -0.15496 7.66572 0.153721C5.98563 0.462403 4.44238 1.22433 3.23111 2.34315C2.01984 3.46197 1.19495 4.88743 0.86076 6.43928C0.526571 7.99113 0.698089 9.59966 1.35362 11.0615C2.00916 12.5233 3.11927 13.7727 4.54357 14.6518C5.96788 15.5308 7.64241 16 9.35541 16C11.2789 16.0022 13.1473 15.407 14.6603 14.31L18.3304 17.71C18.4311 17.8037 18.5508 17.8781 18.6827 17.9289C18.8147 17.9797 18.9562 18.0058 19.0991 18.0058C19.242 18.0058 19.3835 17.9797 19.5155 17.9289C19.6474 17.8781 19.7671 17.8037 19.8678 17.71C19.9692 17.617 20.0498 17.5064 20.1048 17.3846C20.1597 17.2627 20.188 17.132 20.188 17C20.188 16.868 20.1597 16.7373 20.1048 16.6154C20.0498 16.4936 19.9692 16.383 19.8678 16.29V16.29ZM2.85961 8C2.85961 6.81332 3.24058 5.65328 3.95435 4.66658C4.66811 3.67989 5.68262 2.91085 6.86957 2.45673C8.05652 2.0026 9.36261 1.88378 10.6227 2.11529C11.8827 2.3468 13.0402 2.91825 13.9486 3.75736C14.8571 4.59648 15.4757 5.66558 15.7264 6.82946C15.977 7.99335 15.8484 9.19975 15.3567 10.2961C14.8651 11.3925 14.0325 12.3295 12.9643 12.9888C11.896 13.6481 10.6402 14 9.35541 14C7.63261 14 5.98038 13.3679 4.76218 12.2426C3.54398 11.1174 2.85961 9.5913 2.85961 8Z" fill="#3936CD"/>
</svg>
