<svg width="13" height="13" viewBox="0 0 13 13" fill="none" xmlns="http://www.w3.org/2000/svg">
<path d="M11.8906 1.69531H9.42969V0.757812C9.42969 0.693359 9.37695 0.640625 9.3125 0.640625H8.49219C8.42773 0.640625 8.375 0.693359 8.375 0.757812V1.69531H4.625V0.757812C4.625 0.693359 4.57227 0.640625 4.50781 0.640625H3.6875C3.62305 0.640625 3.57031 0.693359 3.57031 0.757812V1.69531H1.10938C0.850098 1.69531 0.640625 1.90479 0.640625 2.16406V11.8906C0.640625 12.1499 0.850098 12.3594 1.10938 12.3594H11.8906C12.1499 12.3594 12.3594 12.1499 12.3594 11.8906V2.16406C12.3594 1.90479 12.1499 1.69531 11.8906 1.69531ZM11.3047 11.3047H1.69531V5.73828H11.3047V11.3047ZM1.69531 4.74219V2.75H3.57031V3.45312C3.57031 3.51758 3.62305 3.57031 3.6875 3.57031H4.50781C4.57227 3.57031 4.625 3.51758 4.625 3.45312V2.75H8.375V3.45312C8.375 3.51758 8.42773 3.57031 8.49219 3.57031H9.3125C9.37695 3.57031 9.42969 3.51758 9.42969 3.45312V2.75H11.3047V4.74219H1.69531Z" fill="#7D7D7D"/>
</svg>
