<svg width="16" height="14" viewBox="0 0 16 14" fill="none" xmlns="http://www.w3.org/2000/svg">
<path d="M8 2.5H15.875V3.625H8V2.5ZM8 10.375H15.875V11.5H8V10.375ZM4.625 5.875H1.25C0.951723 5.8747 0.665748 5.75608 0.454834 5.54517C0.24392 5.33425 0.125298 5.04828 0.125 4.75V1.375C0.125298 1.07672 0.24392 0.790748 0.454834 0.579834C0.665748 0.36892 0.951723 0.250298 1.25 0.25H4.625C4.92328 0.250298 5.20925 0.36892 5.42017 0.579834C5.63108 0.790748 5.7497 1.07672 5.75 1.375V4.75C5.7497 5.04828 5.63108 5.33425 5.42017 5.54517C5.20925 5.75608 4.92328 5.8747 4.625 5.875ZM1.25 1.375V4.75H4.62556L4.625 1.375H1.25ZM4.625 13.75H1.25C0.951723 13.7497 0.665748 13.6311 0.454834 13.4202C0.24392 13.2093 0.125298 12.9233 0.125 12.625V9.25C0.125298 8.95172 0.24392 8.66575 0.454834 8.45483C0.665748 8.24392 0.951723 8.1253 1.25 8.125H4.625C4.92328 8.1253 5.20925 8.24392 5.42017 8.45483C5.63108 8.66575 5.7497 8.95172 5.75 9.25V12.625C5.7497 12.9233 5.63108 13.2093 5.42017 13.4202C5.20925 13.6311 4.92328 13.7497 4.625 13.75ZM1.25 9.25V12.625H4.62556L4.625 9.25H1.25Z" fill="white"/>
</svg>
