<svg width="16" height="16" viewBox="0 0 16 16" fill="none" xmlns="http://www.w3.org/2000/svg">
<path d="M7.33347 12.5273V13.3333H6.00013V14.6667H10.0001V13.3333H8.6668V12.1033C9.43046 11.773 10.125 11.3016 10.7141 10.714C13.3128 8.11534 13.3128 3.88534 10.7141 1.28534L9.77147 2.22801C11.8508 4.30801 11.8508 7.69134 9.77147 9.77067C7.69213 11.8493 4.30813 11.8507 2.2288 9.77067L1.28613 10.7133C1.90482 11.3327 2.63974 11.8237 3.4487 12.1582C4.25766 12.4927 5.12473 12.6642 6.00013 12.6627C6.448 12.6626 6.89471 12.6172 7.33347 12.5273V12.5273Z" fill="#7D7D7D"/>
<path d="M2 6C2 8.206 3.794 10 6 10C8.206 10 10 8.206 10 6C10 3.794 8.206 2 6 2C3.794 2 2 3.794 2 6ZM8.66667 6C8.66667 7.47067 7.47067 8.66667 6 8.66667C4.52933 8.66667 3.33333 7.47067 3.33333 6C3.33333 4.52933 4.52933 3.33333 6 3.33333C7.47067 3.33333 8.66667 4.52933 8.66667 6Z" fill="#7D7D7D"/>
</svg>
