<svg width="12" height="15" viewBox="0 0 12 15" fill="none" xmlns="http://www.w3.org/2000/svg">
<path d="M3.71875 3.9375C3.87622 3.9375 4.02724 3.87494 4.13859 3.76359C4.24994 3.65224 4.3125 3.50122 4.3125 3.34375C4.3125 3.18628 4.24994 3.03526 4.13859 2.92391C4.02724 2.81256 3.87622 2.75 3.71875 2.75C3.56128 2.75 3.41026 2.81256 3.29891 2.92391C3.18756 3.03526 3.125 3.18628 3.125 3.34375C3.125 3.50122 3.18756 3.65224 3.29891 3.76359C3.41026 3.87494 3.56128 3.9375 3.71875 3.9375V3.9375ZM4.3125 6.3125C4.3125 6.46997 4.24994 6.62099 4.13859 6.73234C4.02724 6.84369 3.87622 6.90625 3.71875 6.90625C3.56128 6.90625 3.41026 6.84369 3.29891 6.73234C3.18756 6.62099 3.125 6.46997 3.125 6.3125C3.125 6.15503 3.18756 6.00401 3.29891 5.89266C3.41026 5.78131 3.56128 5.71875 3.71875 5.71875C3.87622 5.71875 4.02724 5.78131 4.13859 5.89266C4.24994 6.00401 4.3125 6.15503 4.3125 6.3125V6.3125ZM3.71875 9.875C3.87622 9.875 4.02724 9.81244 4.13859 9.7011C4.24994 9.58975 4.3125 9.43872 4.3125 9.28125C4.3125 9.12378 4.24994 8.97275 4.13859 8.8614C4.02724 8.75006 3.87622 8.6875 3.71875 8.6875C3.56128 8.6875 3.41026 8.75006 3.29891 8.8614C3.18756 8.97275 3.125 9.12378 3.125 9.28125C3.125 9.43872 3.18756 9.58975 3.29891 9.7011C3.41026 9.81244 3.56128 9.875 3.71875 9.875V9.875ZM6.6875 3.34375C6.6875 3.50122 6.62494 3.65224 6.5136 3.76359C6.40225 3.87494 6.25122 3.9375 6.09375 3.9375C5.93628 3.9375 5.78525 3.87494 5.6739 3.76359C5.56256 3.65224 5.5 3.50122 5.5 3.34375C5.5 3.18628 5.56256 3.03526 5.6739 2.92391C5.78525 2.81256 5.93628 2.75 6.09375 2.75C6.25122 2.75 6.40225 2.81256 6.5136 2.92391C6.62494 3.03526 6.6875 3.18628 6.6875 3.34375V3.34375ZM6.09375 6.90625C6.25122 6.90625 6.40225 6.84369 6.5136 6.73234C6.62494 6.62099 6.6875 6.46997 6.6875 6.3125C6.6875 6.15503 6.62494 6.00401 6.5136 5.89266C6.40225 5.78131 6.25122 5.71875 6.09375 5.71875C5.93628 5.71875 5.78525 5.78131 5.6739 5.89266C5.56256 6.00401 5.5 6.15503 5.5 6.3125C5.5 6.46997 5.56256 6.62099 5.6739 6.73234C5.78525 6.84369 5.93628 6.90625 6.09375 6.90625ZM6.6875 9.28125C6.6875 9.43872 6.62494 9.58975 6.5136 9.7011C6.40225 9.81244 6.25122 9.875 6.09375 9.875C5.93628 9.875 5.78525 9.81244 5.6739 9.7011C5.56256 9.58975 5.5 9.43872 5.5 9.28125C5.5 9.12378 5.56256 8.97275 5.6739 8.8614C5.78525 8.75006 5.93628 8.6875 6.09375 8.6875C6.25122 8.6875 6.40225 8.75006 6.5136 8.8614C6.62494 8.97275 6.6875 9.12378 6.6875 9.28125ZM8.46875 9.875C8.62622 9.875 8.77725 9.81244 8.8886 9.7011C8.99994 9.58975 9.0625 9.43872 9.0625 9.28125C9.0625 9.12378 8.99994 8.97275 8.8886 8.8614C8.77725 8.75006 8.62622 8.6875 8.46875 8.6875C8.31128 8.6875 8.16025 8.75006 8.0489 8.8614C7.93756 8.97275 7.875 9.12378 7.875 9.28125C7.875 9.43872 7.93756 9.58975 8.0489 9.7011C8.16025 9.81244 8.31128 9.875 8.46875 9.875ZM2.53125 0.375C2.05883 0.375 1.60576 0.562667 1.27172 0.896716C0.937667 1.23077 0.75 1.68383 0.75 2.15625V14.0312C0.75 14.1887 0.812556 14.3397 0.923905 14.4511C1.03526 14.5624 1.18628 14.625 1.34375 14.625H10.8438C11.0012 14.625 11.1522 14.5624 11.2636 14.4511C11.3749 14.3397 11.4375 14.1887 11.4375 14.0312V8.09375C11.4375 7.62133 11.2498 7.16826 10.9158 6.83422C10.5817 6.50017 10.1287 6.3125 9.65625 6.3125H9.0625V2.15625C9.0625 1.68383 8.87483 1.23077 8.54078 0.896716C8.20674 0.562667 7.75367 0.375 7.28125 0.375H2.53125ZM1.9375 2.15625C1.9375 1.99878 2.00006 1.84776 2.11141 1.73641C2.22276 1.62506 2.37378 1.5625 2.53125 1.5625H7.28125C7.43872 1.5625 7.58975 1.62506 7.7011 1.73641C7.81244 1.84776 7.875 1.99878 7.875 2.15625V6.90625C7.875 7.06372 7.93756 7.21474 8.0489 7.32609C8.16025 7.43744 8.31128 7.5 8.46875 7.5H9.65625C9.81372 7.5 9.96475 7.56256 10.0761 7.6739C10.1874 7.78525 10.25 7.93628 10.25 8.09375V13.4375H9.0625V11.6562C9.0625 11.4988 8.99994 11.3478 8.8886 11.2364C8.77725 11.1251 8.62622 11.0625 8.46875 11.0625H3.71875C3.56128 11.0625 3.41026 11.1251 3.29891 11.2364C3.18756 11.3478 3.125 11.4988 3.125 11.6562V13.4375H1.9375V2.15625ZM7.875 12.25V13.4375H6.69106V12.25H7.875ZM5.50356 12.25V13.4375H4.3125V12.25H5.50356Z" fill="#7D7D7D"/>
</svg>
